<svg width="50" height="50" viewBox="0 0 50 50" fill="none" xmlns="http://www.w3.org/2000/svg">
<path fill-rule="evenodd" clip-rule="evenodd" d="M10 0C4.47715 0 0 4.47715 0 10V40C0 45.5228 4.47715 50 10 50H40C45.5228 50 50 45.5228 50 40V10C50 4.47715 45.5228 0 40 0H10ZM20.3895 44.172V27.2071H14V20.3836H20.3895V15.183C20.3895 9.26753 24.142 6 29.8895 6C32.642 6 35.5203 6.46067 35.5203 6.46067V12.2667H32.3479C29.2241 12.2667 28.2495 14.0865 28.2495 15.953V20.3836H35.2251L34.1095 27.2071H28.2495V44.172H20.3895Z" fill="#F2F2F2" fill-opacity="0.6"/>
</svg>
