<svg width="50" height="50" viewBox="0 0 50 50" fill="none" xmlns="http://www.w3.org/2000/svg">
<path fill-rule="evenodd" clip-rule="evenodd" d="M10 0C4.47715 0 0 4.47715 0 10V40C0 45.5228 4.47715 50 10 50H40C45.5228 50 50 45.5228 50 40V10C50 4.47715 45.5228 0 40 0H10ZM14.7534 24.7695C14.7534 19.4421 19.3323 15.145 25.0089 15.145C30.6856 15.145 35.2644 19.4421 35.2644 24.7695C35.2644 30.097 30.6856 34.3941 25.0089 34.3941C19.3323 34.3941 14.7534 30.097 14.7534 24.7695ZM18.3415 24.7695C18.3415 28.2206 21.3405 31.0267 25.0089 31.0267C28.6773 31.0267 31.6763 28.2206 31.6763 24.7695C31.6763 21.3184 28.6863 18.5123 25.0089 18.5123C21.3316 18.5123 18.3415 21.3184 18.3415 24.7695ZM35.6839 16.9962C37.0049 16.9962 38.076 15.9994 38.076 14.7513C38.076 13.5116 37.0049 12.5064 35.6839 12.5064C34.3629 12.5064 33.2919 13.5116 33.2919 14.7513C33.2919 15.991 34.354 16.9962 35.6839 16.9962ZM41.6373 9.1642C43.9847 11.3588 44.7166 14.0225 44.8684 17.0297C45.0558 20.129 45.0558 29.4101 44.8684 32.5094C44.7077 35.5165 43.9758 38.1802 41.6373 40.3749C39.2988 42.5779 36.4604 43.2647 33.2562 43.4071C29.9537 43.583 20.0552 43.583 16.7528 43.4071C13.5485 43.2564 10.7191 42.5695 8.37164 40.3749C6.02421 38.1802 5.29231 35.5165 5.14058 32.5094C4.95314 29.4101 4.95314 20.1206 5.14058 17.0213C5.30124 14.0142 6.02421 11.3505 8.37164 9.15583C10.7191 6.9612 13.5574 6.27433 16.7528 6.13193C20.0552 5.95602 29.9537 5.95602 33.2562 6.13193C36.4604 6.28271 39.2988 6.96957 41.6373 9.1642ZM36.7996 39.4032C38.558 38.7415 39.9057 37.4766 40.6019 35.8348C41.4976 33.7225 41.4478 29.1021 41.4155 26.107C41.4101 25.6102 41.4052 25.158 41.4052 24.7695C41.4052 24.3809 41.4101 23.9289 41.4155 23.4322C41.4478 20.4387 41.4976 15.8237 40.6019 13.7042C39.8968 12.0541 38.549 10.7892 36.7996 10.1359C34.5418 9.29983 29.5946 9.34437 26.404 9.37309C25.8864 9.37775 25.4151 9.38199 25.0089 9.38199C24.5949 9.38199 24.1132 9.37741 23.584 9.37238C20.3942 9.34205 15.4766 9.29529 13.2182 10.1359C11.4599 10.7976 10.1121 12.0625 9.41593 13.7042C8.52508 15.8232 8.57254 20.466 8.60314 23.4603C8.60811 23.946 8.61263 24.3884 8.61263 24.7695C8.61263 25.1581 8.60775 25.6102 8.60239 26.1068C8.57007 29.1004 8.52025 33.7154 9.41593 35.8348C10.1211 37.485 11.4688 38.7498 13.2182 39.4032C15.4761 40.2392 20.4233 40.1947 23.6138 40.166C24.1314 40.1613 24.6028 40.1571 25.0089 40.1571C25.423 40.1571 25.9047 40.1617 26.4339 40.1667C29.6237 40.197 34.5413 40.2438 36.7996 39.4032Z" fill="#F2F2F2" fill-opacity="0.6"/>
</svg>
