<svg width="50" height="50" viewBox="0 0 50 50" fill="none" xmlns="http://www.w3.org/2000/svg">
<path fill-rule="evenodd" clip-rule="evenodd" d="M10 0C4.47715 0 0 4.47715 0 10V40C0 45.5228 4.47715 50 10 50H40C45.5228 50 50 45.5228 50 40V10C50 4.47715 45.5228 0 40 0H10ZM32.4058 18.5157C35.2034 20.395 38.5595 21.4019 42 21.3942V14.986C40.1381 14.9864 38.3172 14.4727 36.7641 13.509C35.6724 12.8488 34.7358 11.9865 34.0114 10.975C33.287 9.96343 32.7901 8.82383 32.5512 7.62588C32.4497 7.08925 32.401 6.545 32.4058 6H25.5288V31.6225C25.5288 32.776 25.1405 33.8999 24.4192 34.8339C23.6979 35.7679 22.6806 36.4641 21.5126 36.8232C20.3445 37.1822 19.0854 37.1857 17.9151 36.8332C16.7448 36.4806 15.7231 35.79 14.996 34.8601C14.2688 33.9301 13.8734 32.8083 13.8662 31.6549C13.8589 30.5014 14.2402 29.3753 14.9557 28.4374C15.6711 27.4994 16.684 26.7976 17.8498 26.4322C19.0156 26.0667 20.2747 26.0563 21.4472 26.4024V19.8101C18.8849 19.4768 16.2753 19.8855 13.9672 20.9816C11.6592 22.0777 9.7627 23.8089 8.53141 25.9438C7.30011 28.0786 6.79268 30.5154 7.07695 32.9282C7.36123 35.341 8.42367 37.6149 10.1222 39.4458C11.8208 41.2766 14.0744 42.5772 16.5819 43.1737C19.0894 43.7701 21.7311 43.6339 24.1539 42.7833C26.5766 41.9327 28.665 40.4083 30.1396 38.4139C31.6142 36.4194 32.4049 34.05 32.4058 31.6225V18.5157Z" fill="#F2F2F2" fill-opacity="0.6"/>
</svg>
